# xmcd CD database file
#
# Track frame offsets:
#	150
#	27811
#	57900
#	82646
#	114978
#	128843
#	158723
#	213120
#
# Disc length: 3307 seconds
#
# Revision: 0
# Processed by: cddbd v1.5.2PL0 Copyright (c) Steve Scherf et al.
# Submitted via: CDex 1.51
#
DISCID=540ce908
DTITLE=Atmarama Dasa - Sri Sri Radha Govinda Chandra
DYEAR=2003
DGENRE=New Age
TTITLE0=Om Namo Bhagavate Vasudevaya
TTITLE1=Mana Mana Mandire
TTITLE2=Sri Sri Gurv-astakam
TTITLE3=Oh Vaisnava Thakura
TTITLE4=Srimad Bhagavatam, 1.2.23
TTITLE5=Jaya Radha Madhava
TTITLE6=Sad Goswami Astakam
TTITLE7=Sri Sri Radha Govinda Chandra
EXTD=YEAR: 2003
EXTT0=
EXTT1=
EXTT2=
EXTT3=
EXTT4=
EXTT5=
EXTT6=
EXTT7=
PLAYORDER=
